# Blender v2.77 (sub 0) OBJ File: ''
# www.blender.org
o Cube
v 1.000000 -1.000000 -1.000000
v 1.000000 -1.000000 1.000000
v -1.000000 -1.000000 1.000000
v -1.000000 -1.000000 -1.000000
v 1.000000 1.000000 -0.999999
v 0.999999 1.000000 1.000001
v -1.000000 1.000000 1.000000
v -1.000000 1.000000 -1.000000
vt 0.335742 0.328516
vt 0.000195 0.664258
vt 0.000195 0.328516
vt 1.000000 0.664453
vt 0.667969 1.000000
vt 0.667969 0.664453
vt 0.668095 0.664373
vt 0.336555 1.000000
vt 0.336555 0.664373
vt 0.335680 0.999900
vt 0.000491 0.663967
vt 0.336071 0.663967
vt 0.336120 0.328737
vt 0.668064 0.663880
vt 0.336120 0.663880
vt 0.999845 0.328494
vt 0.668182 0.664373
vt 0.668150 0.328494
vt 0.335742 0.664258
vt 1.000000 1.000000
vt 0.668095 1.000000
vt 0.000100 0.999900
vt 0.668064 0.328737
vt 0.999877 0.664373
vn 0.000000 -1.000000 0.000000
vn 0.000000 1.000000 0.000000
vn 1.000000 -0.000000 0.000000
vn 0.000000 -0.000000 1.000000
vn -1.000000 -0.000000 -0.000000
vn 0.000000 0.000000 -1.000000
s off
f 2/1/1 4/2/1 1/3/1
f 8/4/2 6/5/2 5/6/2
f 5/7/3 2/8/3 1/9/3
f 6/10/4 3/11/4 2/12/4
f 3/13/5 8/14/5 4/15/5
f 1/16/6 8/17/6 5/18/6
f 2/1/1 3/19/1 4/2/1
f 8/4/2 7/20/2 6/5/2
f 5/7/3 6/21/3 2/8/3
f 6/10/4 7/22/4 3/11/4
f 3/13/5 7/23/5 8/14/5
f 1/16/6 4/24/6 8/17/6
